HIERARCHY
ROOT Hips
{
  OFFSET -35.2597 29.1586 114.425
  CHANNELS 6 Xposition Yposition Zposition Zrotation Xrotation Yrotation
  JOINT LeftUpLeg
  {
    OFFSET 8.64259 1.95398 -2.38835
    CHANNELS 3 Zrotation Xrotation Yrotation
    JOINT LeftLeg
    {
      OFFSET 43.7702 0 0
      CHANNELS 3 Zrotation Xrotation Yrotation
      JOINT LeftFoot
      {
        OFFSET 40.6238 0 0
        CHANNELS 3 Zrotation Xrotation Yrotation
        JOINT LeftToeBase
        {
          OFFSET 12.7242 0 0
          CHANNELS 3 Zrotation Xrotation Yrotation
          End Site
          {
            OFFSET 0 0 0
          }
        }
      }
    }
  }
  JOINT RightUpLeg
  {
    OFFSET -8.2249 1.95398 -2.59336
    CHANNELS 3 Zrotation Xrotation Yrotation
    JOINT RightLeg
    {
      OFFSET 43.5653 0 0
      CHANNELS 3 Zrotation Xrotation Yrotation
      JOINT RightFoot
      {
        OFFSET 40.6238 0 0
        CHANNELS 3 Zrotation Xrotation Yrotation
        JOINT RightToeBase
        {
          OFFSET 12.7242 0 0
          CHANNELS 3 Zrotation Xrotation Yrotation
          End Site
          {
            OFFSET 0 0 0
          }
        }
      }
    }
  }
  JOINT Spine
  {
    OFFSET 0.165834 0.87714 6.61349
    CHANNELS 3 Zrotation Xrotation Yrotation
    JOINT Spine1
    {
      OFFSET 7.38963 1.71661e-005 0
      CHANNELS 3 Zrotation Xrotation Yrotation
      JOINT Spine2
      {
        OFFSET 11.9445 1.14441e-005 0
        CHANNELS 3 Zrotation Xrotation Yrotation
        JOINT Spine3
        {
          OFFSET 14.7254 4.19617e-005 0
          CHANNELS 3 Zrotation Xrotation Yrotation
          JOINT Spine4
          {
            OFFSET 10.9679 0 0
            CHANNELS 3 Zrotation Xrotation Yrotation
            JOINT RightShoulder
            {
              OFFSET 2.46616 -1.6653 3.69651
              CHANNELS 3 Zrotation Xrotation Yrotation
              JOINT RightArm
              {
                OFFSET 13.0012 0 0
                CHANNELS 3 Zrotation Xrotation Yrotation
                JOINT RightForeArm
                {
                  OFFSET 28.7848 1.62311e-005 0
                  CHANNELS 3 Zrotation Xrotation Yrotation
                  JOINT RightHand
                  {
                    OFFSET 26.5688 1.62095e-005 0
                    CHANNELS 3 Zrotation Xrotation Yrotation
                    End Site
                    {
                      OFFSET 0 0 0
                    }
                  }
                }
              }
            }
            JOINT LeftShoulder
            {
              OFFSET 2.38034 -1.29275 -3.7523
              CHANNELS 3 Zrotation Xrotation Yrotation
              JOINT LeftArm
              {
                OFFSET 16.3182 6.07031e-005 0
                CHANNELS 3 Zrotation Xrotation Yrotation
                JOINT LeftForeArm
                {
                  OFFSET 27.0901 0 0
                  CHANNELS 3 Zrotation Xrotation Yrotation
                  JOINT LeftHand
                  {
                    OFFSET 24.5451 1.51738e-005 0
                    CHANNELS 3 Zrotation Xrotation Yrotation
                    End Site
                    {
                      OFFSET 0 0 0
                    }
                  }
                }
              }
            }
            JOINT Neck
            {
              OFFSET 5.0226 -0.0266342 0
              CHANNELS 3 Zrotation Xrotation Yrotation
              JOINT Head
              {
                OFFSET 6.69364 2.86102e-005 0
                CHANNELS 3 Zrotation Xrotation Yrotation
                End Site
                {
                  OFFSET 0 0 0
                }
              }
            }
          }
        }
      }
    }
  }
}
MOTION
Frames:	15
Frame Time:	0.0416667
-11.9414 92.7182 -13.7443 -105.063 44.4238 -81.6929 -173.431 9.70909 88.1021 -48.9273 10.4393 0.526739 84.5017 17.8287 -0.0695158 27.3878 -4.39449 7.20464 176.392 34.9093 87.6701 -85.5864 -6.29958 -3.73676 69.3664 -6.14876 -4.17353 15.0038 2.61204 7.86917 0.405269 8.47214 -89.8308 9.93088 0.884625 0.262556 -1.73975 0.895313 0.223365 -24.277 0.764798 0.516296 -4.26436 0.764808 0.5163 88.9014 -36.6126 -106.431 27.8215 9.44325 58.1359 -33.2321 7.39326 -105.814 -42.5714 22.3519 -59.6633 -85.9703 -53.4131 85.2623 -20.8333 -12.5896 39.085 57.0137 -15.2665 -101.517 0.167525 -1.60042 -64.9516 4.60026 33.259 5.19243 -11.4415 30.8086 15.2751 
-6.21557 93.3565 -8.1291 -104.934 44.4872 -82.7057 -174.465 15.0382 86.174 -47.0128 11.3226 0.0946904 76.7435 12.528 2.37689 25.2408 -3.52166 3.25708 174.059 27.3025 86.1903 -92.0938 -3.81857 -3.68314 66.906 -5.13159 -4.60272 12.3082 3.22794 8.71614 1.07537 8.4097 -89.8602 10.0549 2.2067 0.0941552 -1.61421 2.2087 -0.00310764 -24.1631 2.07633 0.753294 -4.15043 2.07633 0.753282 90.2087 -32.2303 -105.532 26.7586 10.7717 52.5425 -31.1468 8.22883 -108.447 -44.0082 22.958 -59.2255 -86.1349 -54.8211 85.2175 -18.299 -21.5863 55.0577 56.6064 -17.2921 -102.957 -2.96258 0.28422 -69.1989 0.575082 32.8529 8.92784 -8.82503 30.5394 13.9281 
-0.653041 95.5303 -3.08301 -108.647 44.2965 -79.6059 -175.26 13.8386 87.1281 -38.3752 13.2295 -0.00667997 67.5233 5.44989 2.17538 21.0956 -5.69893 3.00107 173.062 12.8622 85.5341 -88.9405 -9.83001 -3.96003 60.7893 -1.13255 -4.79426 10.4405 3.63973 9.2966 1.83785 8.5576 -89.9531 9.76534 3.68483 -0.19888 -1.90044 3.67251 -0.361086 -24.4758 3.57403 0.919211 -4.4631 3.57401 0.919206 90.0082 -29.0575 -107.118 25.4108 14.9814 50.0632 -31.1535 9.19809 -110.132 -41.5627 21.8866 -59.9048 -84.3638 -52.7446 87.5193 -14.2376 -30.2467 70.1538 56.866 -21.0737 -105.19 -4.42033 1.51306 -74.792 -5.22449 31.1191 9.4409 -7.5932 29.4329 14.5337 
5.32073 98.1016 2.22608 -109.726 43.7739 -79.1931 -176.432 11.6185 87.5768 -22.6092 15.2017 -0.226099 51.3627 -6.09434 -0.752452 18.8636 -4.45455 -1.03799 172.752 0.261934 84.7848 -78.4335 -18.4607 -4.56115 56.4947 2.31804 -3.84791 11.3771 2.69253 10.5998 2.47826 8.43431 -89.9338 10.0181 4.96906 -0.2789 -1.64338 4.95196 -0.497878 -24.2519 4.82259 1.23098 -4.23929 4.8226 1.23098 91.2634 -24.1546 -106.455 25.7315 12.8619 50.1392 -29.1939 9.74943 -112.602 -42.3292 21.4453 -57.9977 -83.2343 -48.6918 88.7795 -9.48475 -38.613 80.7675 59.1501 -24.4108 -105.973 -9.02433 5.28211 -81.4306 -9.9349 29.7514 9.63849 -7.52087 28.6436 12.9353 
12.0191 98.9315 8.00676 -105.119 42.3818 -83.0168 -177.822 16.209 87.2666 -17.1316 22.3913 -0.0592103 53.289 -4.88145 -2.87482 15.3535 -11.3214 6.24132 173.251 -5.30287 87.1907 -67.1459 -18.5124 -4.23251 58.9129 0.871415 -1.33874 14.7989 1.35113 10.9758 2.58399 8.08409 -89.6742 10.7116 5.29593 0.160559 -0.948519 5.29784 -0.0733597 -23.5636 5.00218 1.74879 -3.55094 5.0022 1.74879 92.9402 -19.3853 -104.667 25.7679 11.8533 48.1811 -28.857 10.3444 -113.973 -40.3986 21.2253 -59.9271 -84.4602 -44.1314 86.2916 -6.02026 -44.128 89.3101 62.4079 -27.9033 -105.983 -9.69218 5.95537 -84.1217 -7.81194 30.0632 9.04297 -9.64993 28.693 11.7835 
19.5923 98.3905 14.4628 -98.5545 40.647 -87.5448 -178.439 25.3544 87.3595 -23.5515 24.5779 -0.100131 56.3399 -2.81625 -1.27183 18.3132 -9.48916 6.3496 174.898 -4.54997 90.0839 -58.5292 -16.7618 -3.65695 63.219 -2.02327 -1.88876 17.213 0.721376 10.5388 2.36503 7.81261 -89.478 11.2448 4.94973 0.550534 -0.416743 4.96915 0.331597 -23.0177 4.55499 2.01564 -3.00503 4.55501 2.01565 93.7122 -17.2652 -103.675 25.5878 12.2225 47.775 -22.5892 8.58573 -116.767 -33.9547 20.6357 -67.759 -85.0594 -42.8948 85.1445 -8.78884 -40.566 86.8525 58.8033 -27.4065 -107.755 -7.65666 4.12209 -81.4761 -3.78394 31.6369 11.4316 -9.33065 29.6847 10.8208 
27.4402 97.1794 21.2911 -96.3778 39.2672 -89.504 -176.65 31.172 86.7882 -37.1443 19.0993 -1.07967 63.3213 1.74648 -1.41605 21.0151 -7.23659 5.45302 176.141 -2.39391 91.1708 -53.1926 -17.326 -4.05059 65.4401 -3.64315 -3.9048 16.6485 0.879908 10.6151 2.1039 7.76589 -89.4283 11.3349 4.4531 0.693563 -0.328539 4.47929 0.496506 -22.9149 4.03847 2.00185 -2.90224 4.03847 2.00185 92.89 -20.1893 -104.445 25.0716 15.1891 51.1875 -25.0668 9.72632 -116.493 -29.6776 19.4704 -72.2021 -85.0448 -45.6987 85.5857 -13.3274 -33.4195 73.9849 53.883 -23.0749 -107.954 -6.83286 3.45697 -76.9628 -2.27783 33.634 13.4575 -10.2024 31.2008 11.2062 
35.2777 95.225 28.4106 -96.8781 39.5633 -90.5601 -172.469 34.1421 85.0748 -55.2759 13.7769 -1.86942 71.4927 7.06758 0.118546 22.226 -6.6024 5.57189 176.943 -0.577231 90.2422 -49.9536 -17.0417 -5.31585 69.6351 -7.34166 -6.37116 32.2127 -4.08235 10.6446 1.78417 7.95417 -89.3527 10.9534 3.85174 0.922251 -0.712018 3.88857 0.751589 -23.2821 3.39635 2.03834 -3.26944 3.39633 2.03833 91.8214 -23.4591 -105.519 25.7027 12.633 53.8087 -29.254 10.3404 -113.607 -37.0413 21.4762 -64.9988 -85.9714 -49.5114 84.7033 -16.1593 -27.5974 63.4777 46.972 -18.2014 -107.981 -3.15252 0.259931 -69.5761 -1.23214 35.9892 15.0926 -11.8023 33.1231 11.4553 
43.1853 93.2083 35.4965 -97.1418 40.8711 -91.7677 -167.234 34.7756 83.9231 -71.7769 10.8947 -1.28295 73.186 8.07241 1.74197 21.5827 -6.31725 4.49144 177.552 3.85714 88.8479 -51.494 -16.3303 -6.47412 81.5585 -16.4906 -4.96487 38.1875 -5.03644 6.16388 1.37436 8.05244 -89.3701 10.7563 3.0272 0.971822 -0.911369 3.06702 0.837536 -23.4656 2.59515 1.83713 -3.453 2.59514 1.83712 91.9434 -25.2384 -104.567 27.4075 9.52359 53.3026 -28.9447 6.76157 -107.161 -34.3499 20.4565 -66.852 -86.2392 -56.5406 85.301 -17.1914 -27.3338 47.1952 43.9324 -13.9156 -105.515 -5.52874 1.90468 -68.8104 -4.14985 37.7342 21.4239 -8.27412 34.9942 9.78359 
50.567 91.5196 42.0582 -94.4119 41.3914 -91.7658 -164.714 35.046 86.8866 -84.5276 12.7727 0.612311 70.1643 6.55954 3.56459 22.4573 -4.54844 2.34247 178.219 14.4276 90.1633 -55.9266 -12.938 -5.0699 86.7752 -19.2379 -1.98919 30.78 -3.28989 9.19163 0.917471 7.91796 -89.7014 11.0355 1.96486 0.405439 -0.634008 1.98078 0.318532 -23.1786 1.75214 0.977375 -3.16595 1.75213 0.97737 91.9917 -26.6037 -103.954 28.8761 7.9238 62.2818 -38.9194 8.10926 -104.223 -40.3286 19.7329 -56.5858 -85.0257 -63.0896 87.7173 -19.1348 -26.2254 28.6933 46.0734 -12.9728 -103.711 -6.19833 2.41594 -70.817 -3.43889 39.7024 26.1415 -7.6699 36.4649 8.3787 
56.8801 91.0391 47.5433 -94.4332 40.0589 -89.6947 -167.045 28.6382 92.4012 -90.1834 17.1564 2.27456 65.4305 3.80428 4.62716 22.6336 -2.41729 -1.24648 177.912 22.7211 91.9409 -59.2288 -14.901 -3.67349 81.2523 -15.4024 -3.38367 27.6891 -2.11184 8.60537 0.30223 7.94703 -89.8767 10.9787 0.658681 0.181409 -0.692111 0.666027 0.152236 -23.2281 0.573718 0.370992 -3.21541 0.573698 0.370983 92.9183 -27.6739 -101.648 36.5096 -0.789399 67.2214 -35.0444 3.45965 -98.7074 -46.7664 20.1249 -50.3629 -84.2748 -61.9556 88.591 -20.5464 -20.4984 16.1927 41.3593 -12.624 -105.316 -5.09684 1.61943 -68.8596 -0.991517 41.1968 25.4031 -9.54846 37.4541 8.19605 
62.5176 91.6266 52.3495 -99.5594 38.0882 -86.0032 -169.728 13.6287 97.0979 -86.7716 22.6936 3.47109 61.6406 1.46734 5.54205 22.6695 -2.32153 -1.39133 177.669 22.8655 91.8932 -56.8856 -16.2633 -3.29683 76.7968 -11.9371 -3.74692 24.7845 -1.19679 8.78319 -0.513257 8.26181 -89.919 10.3521 -0.985421 0.246356 -1.31856 -0.973606 0.289482 -23.8565 -1.0139 -0.0612159 -3.84389 -1.0139 -0.0612191 93.2258 -27.8475 -100.947 43.1759 -4.70886 75.0063 -30.648 1.11769 -95.2976 -46.0801 20.3556 -51.5361 -85.4962 -58.2326 86.5508 -20.5404 -16.4795 7.33069 36.5581 -10.7331 -105.246 -1.7077 -0.511365 -68.6711 -5.68158 39.5945 24.5064 -10.4679 36.7386 11.066 
68.2152 93.654 57.3712 -102.985 36.5144 -82.5458 -171.926 -0.742412 99.1224 -75.8406 24.4455 5.49334 58.2132 -1.30083 3.36229 26.3026 -1.11722 -0.219783 178.199 21.03 92.5727 -47.7723 -16.8078 -2.94232 68.5897 -5.87259 -2.98056 22.4292 -0.685549 9.63073 -1.26568 8.43162 -89.9306 10.0159 -2.49067 0.343325 -1.65277 -2.47314 0.452672 -24.2066 -2.47864 -0.42156 -4.194 -2.47864 -0.421564 93.6197 -28.1625 -100.043 46.4819 -4.52 82.8041 -31.2703 0.563694 -94.1922 -44.1352 20.0912 -53.0161 -85.2026 -50.5129 85.9995 -20.388 -14.7876 5.53898 37.0802 -12.78 -107.594 3.01308 -3.32631 -66.6705 -9.83752 37.6191 22.0476 -12.2422 35.4629 13.3497 
74.4236 96.5351 63.2368 -103.604 37.0526 -81.5378 -173.797 -10.184 96.5853 -63.2222 26.8034 7.21479 58.8281 -0.930812 2.37203 27.8424 -0.659371 0.392451 179.68 18.8573 92.1989 -31.9946 -19.667 -3.49578 55.6987 2.77501 0.795934 18.7396 1.11239 8.20832 -1.67702 8.41565 -89.8853 10.0528 -3.28972 0.500939 -1.61418 -3.26449 0.645396 -24.1824 -3.288 -0.512012 -4.16977 -3.28802 -0.512018 92.5075 -28.7909 -102.137 47.5219 -3.00093 87.0919 -28.5868 -0.188419 -92.8056 -39.6977 19.7522 -57.413 -84.3766 -42.1558 86.1619 -20.2699 -14.1485 4.60515 38.1631 -14.0782 -108.573 4.32061 -4.03699 -65.3861 -13.4593 34.6068 19.6629 -13.543 33.0536 14.3468 
80.5232 98.3476 69.7954 -101.11 38.1559 -82.4591 -175.253 -13.2184 93.7874 -52.6682 26.8106 7.37256 62.5294 2.09684 3.71735 23.1301 -3.79121 1.68792 -179.838 17.535 91.4816 -18.649 -26.5574 -4.31909 58.3573 0.704114 0.409251 16.5105 2.58888 6.57925 -1.65328 8.1007 -90.03 10.6794 -3.30631 0.242219 -0.987366 -3.29243 0.387652 -23.5551 -3.22606 -0.763718 -3.54245 -3.22609 -0.763728 90.675 -28.6072 -105.937 46.2368 -0.097489 89.0254 -30.7006 -1.37083 -90.9369 -37.7993 18.7834 -57.5274 -83.6344 -38.2478 86.8777 -19.8573 -11.4956 1.03709 37.8694 -12.433 -106.757 4.63956 -4.21361 -65.243 -15.2876 30.6188 17.276 -15.4168 29.4258 12.7536 
